<svg width="500" height="200" viewBox="0 0 500 200" fill="none" xmlns="http://www.w3.org/2000/svg">
<path d="M239.286 96C244.286 97.75 247.857 100.75 248.214 105.25C249.286 113 242.857 119 231.071 119.5C219.286 120 207.5 119.75 195.714 119.75C190.357 119.75 186.429 116.75 186.429 112.75C186.071 100.75 186.429 88.5 186.429 76.5C186.429 74.75 187.857 74.25 190 74.25C202.857 74.25 215.714 74.25 228.571 74.5C240.357 75 247.143 80.75 245 88.75C243.929 91 241.429 93.25 239.286 96ZM214.643 112.5C218.929 112.5 223.214 112.5 227.5 112.5C233.571 112.5 237.857 110 237.857 106.5C238.214 103.25 233.929 100.25 227.857 100C218.929 99.75 210 99.75 201.071 100C200 100 198.214 101.25 198.214 102C197.857 104.75 198.214 107.25 197.857 110C197.857 111.75 198.929 112.25 201.429 112.25C206.071 112.25 210.357 112.5 214.643 112.5ZM213.571 92.5C217.5 92.5 221.071 92.5 225 92.5C231.071 92.5 234.643 90.25 234.643 87C234.643 84 230.714 81.75 225 81.5C219.643 81.5 214.286 81.5 209.286 81.5C197.5 81.5 197.5 81.5 197.857 89.75C197.857 90 197.857 90.25 197.857 90.25C197.5 92 198.929 92.5 201.071 92.25C205.357 92.5 209.643 92.5 213.571 92.5Z" fill="#95928E"/>
<path d="M30.3571 82.5C30.3571 85.25 30.3571 88 30.3571 90.75C30.3571 99.25 30.3571 108 30.3571 116.5C30.3571 118.75 29.6429 119.75 26.0714 119.5C16.7857 119.25 18.2143 120 18.2143 114.25C18.2143 103.75 18.2143 93.25 18.2143 83C18.2143 78.25 20.3571 75.75 25.3571 74.5C30.7143 73.25 36.4286 74.25 40 77.5C51.7857 88 63.2143 98.5 75 109.25C75.7143 110 76.7857 110.75 78.5714 112.25C78.5714 110.5 78.9286 109.5 78.9286 108.25C78.9286 98.25 78.9286 88.25 78.9286 78.25C78.9286 74 78.9286 74 85.3571 73.75C91.0714 73.75 91.0714 73.75 91.0714 78C91.0714 84 91.0714 90 91.0714 96C91.0714 100.75 91.0714 105.5 91.0714 110.25C91.0714 115 88.9286 117.75 83.9286 119C78.2143 120.5 72.8571 119.25 68.5714 115.5C57.5 105.25 46.0714 95.25 35 85C33.9286 84 32.5 83 31.4286 82C31.0714 82.25 30.7143 82.5 30.3571 82.5Z" fill="#95928E"/>
<path d="M386.429 74.75C386.429 77 386.429 79.25 386.429 81.75C384.643 81.75 383.214 82 381.786 82C369.286 82 356.786 82 344.286 82C341.071 82 339.643 82.5 340 85C340.357 87 340.357 89 340 91C339.643 93.25 341.071 93.75 343.929 93.75C351.071 93.75 358.214 93.75 365.357 93.75C366.786 93.75 368.571 93.75 370 93.75C370.357 94.5 370.357 94.75 370.357 95C371.071 101 371.071 101 362.5 101C356.071 101 349.643 101 343.571 101C341.071 101 340 101.5 340 103.5C339.643 112.5 339.286 112.5 352.5 112.5C363.929 112.5 375.357 112.5 387.5 112.5C387.5 114.5 387.5 116.25 387.5 118C387.5 119.5 386.786 120.25 384.286 120.25C368.929 120.25 353.929 120.25 338.571 120.25C332.5 120.25 328.571 117.25 328.571 113.25C328.571 101.25 328.571 89.25 328.571 77.25C328.571 75.5 329.286 74.75 331.786 74.75C349.643 74.75 367.5 74.75 385.357 74.75C385.357 74.25 385.714 74.5 386.429 74.75Z" fill="#95928E"/>
<path d="M137.5 73C156.786 73 171.786 83.5 171.786 97C171.786 110.5 156.429 120.75 137.5 120.75C118.571 120.75 103.571 110.25 103.571 97C103.214 83.5 118.214 73 137.5 73ZM161.071 97.25C161.071 88.25 150.714 80.75 137.857 80.75C125 80.5 113.929 88 113.929 97.25C113.929 106.25 124.286 113.5 137.143 113.75C150 113.5 160.714 106 161.071 97.25Z" fill="#95928E"/>
<path d="M313.929 112.25C313.929 115 313.929 117.25 313.929 119.5C312.5 119.5 311.429 119.75 310.357 119.75C298.929 119.75 287.5 119.75 276.429 119.75C269.286 119.75 265 116.75 265 111.75C265 100 265 88.5 265 76.75C265 75 265.714 74 268.571 74C271.071 74 273.929 74 277.143 74C277.143 75.5 277.143 76.5 277.143 77.75C277.143 88.25 277.143 98.5 277.143 109C277.143 111.5 278.214 112.25 281.786 112.25C291.786 112.25 302.5 112.25 313.929 112.25Z" fill="#95928E"/>
<path d="M483.929 74.4999C481.786 82.7499 459.643 95.4999 446.786 95.4999C447.143 94.7499 447.5 94.2499 448.214 93.7499C454.286 88.4999 461.071 83.4999 466.786 77.9999C471.429 73.4999 477.5 74.2499 483.929 74.4999Z" fill="#95928E"/>
<path d="M403.571 74.7501C411.071 74.0001 417.143 74.0001 422.143 78.7501C427.857 84.5001 435 89.7501 441.429 95.2501C430.357 96.7501 408.214 85.0001 403.571 74.7501Z" fill="#95928E"/>
<path d="M403.571 119.5C408.214 109.25 428.929 98 441.786 98.75C435 104.5 427.857 109.75 422.143 115.5C417.143 120.25 411.071 120 403.571 119.5Z" fill="#95928E"/>
<path d="M446.071 98.75C459.286 98.25 480.714 110.25 483.929 119.25C476.786 121 471.786 120.25 466.786 116.25C460 110.5 453.214 104.75 446.071 98.75Z" fill="#95928E"/>
</svg>
